:version 1.10
:name ASF
:units
  mass 1
  length 1
  angle deg
:documentation
  ASF file generated by Kaydara
:root
  axis xyz
  order  tx ty tz rx ry rz
  position 0 0 0
  orientation 0 0 0
:bonedata
  begin
    id 1
    name RightUpLegDummy
    direction -0.718183 -0.695806 0.00816078
    length 4.904
    axis 0 0 0 xyz
  end
  begin
    id 2
    name RightUpLeg
    direction 3.53989e-006 -0.995788 0.0916897
    length 17.4976
    axis -3.49089 -0.000906621 0.000287158 xyz
    dof rx ry rz
  end
  begin
    id 3
    name RightLeg
    direction 0.00371093 -0.995096 -0.0988418
    length 16.5821
    axis 3.68512 0.0193738 -0.131023 xyz
    dof rx ry rz
  end
  begin
    id 4
    name RightFoot
    direction 0.000791514 -0.46099 0.887405
    length 3.77069
    axis 4.84075e-005 -0.120479 -0.188788 xyz
    dof rx ry rz
  end
  begin
    id 5
    name RightToes
    direction 0.00124746 -0.014064 0.9999
    length 3.85082
    axis 0.00048216 0.542163 -0.142577 xyz
    dof rx ry rz
  end
  begin
    id 6
    name SpineDummy
    direction 8.3039e-015 1 4.57515e-016
    length 4.6813
    axis 0 0 0 xyz
  end
  begin
    id 7
    name Spine
    direction -4.63632e-008 0.999988 0.00495137
    length 10.1015
    axis -0.00138897 0.000121419 3.25764e-006 xyz
    dof rx ry rz
  end
  begin
    id 8
    name Spine1
    direction 0 0 0
    length 0
    axis -0.00138896 0.000121452 2.39764e-006 xyz
    dof rx ry rz
  end
  begin
    id 9
    name HEadDummy
    direction -3.91456e-008 0.999999 0.00127422
    length 3.43865
    axis -0.00138896 0.000121452 2.39764e-006 xyz
  end
  begin
    id 10
    name HEad
    direction -0.0222688 0.980941 0.193023
    length 5.12695
    axis -0.00138895 0.000121452 2.39764e-006 xyz
    dof rx ry rz
  end
  begin
    id 11
    name LeftShoulder1Dummy
    direction 0.998891 -0.0402508 -0.0244456
    length 3.5433
    axis -0.00138896 0.000121452 2.39764e-006 xyz
  end
  begin
    id 12
    name LeftShoulder1
    direction 0.99951 -0.000327743 0.0313091
    length 4.05031
    axis -0.00138896 0.000121452 2.39764e-006 xyz
    dof rx ry rz
  end
  begin
    id 13
    name LeftArm
    direction 0.998561 -0.00100054 -0.0536182
    length 10.3537
    axis -23.1894 0.134784 0.96751 xyz
    dof rx ry rz
  end
  begin
    id 14
    name LeftForeArm
    direction 0.998903 0.00866434 0.046012
    length 8.70632
    axis -9.91835 -0.06569 -0.177792 xyz
    dof rx ry rz
  end
  begin
    id 15
    name LeftHand
    direction 0.992938 -0.0411636 0.11126
    length 5.32135
    axis -0.00960227 -0.00340091 0.185174 xyz
    dof rx ry rz
  end
  begin
    id 16
    name RightShoulderDummy
    direction -0.998891 -0.0402509 -0.0244414
    length 3.5433
    axis -0.00138896 0.000121452 2.39764e-006 xyz
  end
  begin
    id 17
    name RightShoulder
    direction -0.99951 -0.000327827 0.0313133
    length 4.05031
    axis 0.215806 0.000203644 -0.00680151 xyz
    dof rx ry rz
  end
  begin
    id 18
    name RightArm
    direction -0.998573 -0.000999583 -0.053403
    length 10.3947
    axis -23.2009 -0.134239 -0.9641 xyz
    dof rx ry rz
  end
  begin
    id 19
    name RightForeArm
    direction -0.998898 0.00868026 0.0461306
    length 8.68355
    axis -9.92322 0.0658061 0.178869 xyz
    dof rx ry rz
  end
  begin
    id 20
    name RightHand
    direction -0.992843 -0.0414603 0.112003
    length 5.28593
    axis -0.00960634 0.00330671 -0.185226 xyz
    dof rx ry rz
  end
  begin
    id 21
    name LeftUpLegDummy
    direction 0.718183 -0.695806 0.00816078
    length 4.904
    axis 0 0 0 xyz
  end
  begin
    id 22
    name LeftUpLeg
    direction -6.8115e-006 -0.995793 0.0916336
    length 17.4976
    axis -3.48766 0.00143441 -0.000523914 xyz
    dof rx ry rz
  end
  begin
    id 23
    name LeftLeg
    direction -0.00601357 -0.995091 -0.0987824
    length 16.5821
    axis 3.68177 -0.00654038 -0.00028478 xyz
    dof rx ry rz
  end
  begin
    id 24
    name LeftFoot
    direction -0.00417578 -0.460984 0.887399
    length 3.77069
    axis 1.87232e-006 4.66002e-005 -8.1837e-006 xyz
    dof rx ry rz
  end
  begin
    id 25
    name LeftToes
    direction 0.00818058 -0.00485161 0.999955
    length 3.85048
    axis 1.06246e-005 4.65855e-005 -8.18502e-006 xyz
    dof rx ry rz
  end
:hierarchy
  begin
    root RightUpLegDummy SpineDummy LeftUpLegDummy
    RightUpLegDummy RightUpLeg
    RightUpLeg RightLeg
    RightLeg RightFoot
    RightFoot RightToes
    SpineDummy Spine
    Spine Spine1
    Spine1 HEadDummy LeftShoulder1Dummy RightShoulderDummy
    HEadDummy HEad
    LeftShoulder1Dummy LeftShoulder1
    LeftShoulder1 LeftArm
    LeftArm LeftForeArm
    LeftForeArm LeftHand
    RightShoulderDummy RightShoulder
    RightShoulder RightArm
    RightArm RightForeArm
    RightForeArm RightHand
    LeftUpLegDummy LeftUpLeg
    LeftUpLeg LeftLeg
    LeftLeg LeftFoot
    LeftFoot LeftToes
  end

:SAMPLES-PER-SECOND 30
:FRAME-RANGE 1-564
:FULLY-SPECIFIED
:DEGREES
1
root  89.7998 39.4278 135.824 -0.23458 -71.9401 2.4949
RightUpLeg  -0.245485 -2.9199 -0.844457
RightLeg  9.14681 -5.5912 -1.89123
RightFoot  -9.10977 -0.0858731 1.59625
RightToes  1.21801e-010 1.2921e-014 -6.02303e-014
Spine  -15.1525 -2.56297 0.411108
Spine1  12.6191 -2.70219 -0.359523
HEad  14.921 6.10678 -1.88232
LeftShoulder1  1.566 -1.75789 -24.9995
LeftArm  -4.89077 4.46361 -52.2729
LeftForeArm  35.3864 3.91072 -12.0976
LeftHand  -0.147963 2.55314 5.6439
RightShoulder  1.8934 2.43749 26.9884
RightArm  -23.4942 5.58959 55.0266
RightForeArm  74.6526 -5.24774 4.29039
RightHand  0.254321 -7.2804 -16.6576
LeftUpLeg  -1.3776 1.22896 -0.851997
LeftLeg  5.63661 3.73548 2.59441
LeftFoot  -5.50276 0.10166 -1.53923
LeftToes  1.70735e-010 3.74918e-011 3.68705e-011
2
root  89.7884 39.4205 135.836 -0.534758 -72.0541 2.72345
RightUpLeg  -0.129412 -2.91462 -0.96174
RightLeg  9.12324 -5.29904 -1.86715
RightFoot  -9.23365 -0.0944528 1.72937
RightToes  1.21801e-010 1.2921e-014 -6.02303e-014
Spine  -15.2953 -2.51247 0.573482
Spine1  12.8892 -2.58665 -0.675291
HEad  14.9985 6.21297 -1.88104
LeftShoulder1  1.58121 -1.82703 -24.874
LeftArm  -4.77752 3.85602 -52.5808
LeftForeArm  34.8366 3.94267 -12.1601
LeftHand  0.00068484 6.29374 3.88882
RightShoulder  1.89901 2.45696 26.9744
RightArm  -23.302 5.9493 55.3651
RightForeArm  74.7689 -5.25475 4.36169
RightHand  0.188896 -6.84571 -16.3891
LeftUpLeg  -1.25487 1.17513 -0.963575
LeftLeg  5.65411 3.91337 2.66549
LeftFoot  -5.58083 0.111599 -1.69375
LeftToes  1.70735e-010 3.74918e-011 3.68705e-011
3
root  89.8 39.4142 135.805 -0.0348704 -72.0918 2.31284
RightUpLeg  -0.308136 -2.82378 -0.780366
RightLeg  9.16977 -5.37397 -1.84276
RightFoot  -9.2268 -0.0928159 1.63779
RightToes  1.21801e-010 1.2921e-014 -6.02303e-014
Spine  -15.2586 -2.5533 0.473373
Spine1  12.8033 -2.70075 -0.428739
HEad  15.0685 6.43243 -2.03786
LeftShoulder1  1.58898 -1.83966 -24.9532
LeftArm  -4.44744 3.40425 -52.7643
LeftForeArm  34.8357 3.88459 -12.2879
LeftHand  0.0165073 6.68719 4.2529
RightShoulder  1.92237 2.5652 26.7591
RightArm  -23.1983 6.22741 55.8571
RightForeArm  74.4108 -5.27483 4.39442
RightHand  0.25497 -7.28842 -16.6304
LeftUpLeg  -1.57557 1.2906 -0.749428
LeftLeg  5.99859 3.80725 2.62357
LeftFoot  -5.70643 0.111467 -1.69168
LeftToes  1.70735e-010 3.74918e-011 3.68705e-011
4
root  89.7977 39.4119 135.794 0.012757 -72.1925 2.29795
RightUpLeg  -0.404632 -2.67902 -0.743825
RightLeg  9.2377 -5.3981 -1.8911
RightFoot  -9.20073 -0.0898151 1.46704
RightToes  1.21801e-010 1.2921e-014 -6.02303e-014
Spine  -15.2168 -2.56115 0.413869
Spine1  12.7675 -2.72172 -0.369155
HEad  15.1755 6.61516 -2.03135
LeftShoulder1  1.6074 -1.89059 -25.0077
LeftArm  -4.26324 3.08818 -52.8537
LeftForeArm  34.2722 3.93572 -12.3771
LeftHand  0.0355009 9.09175 2.5331
RightShoulder  1.92281 2.55968 26.7989
RightArm  -23.2736 6.45391 56.0575
RightForeArm  74.6867 -5.24989 4.3119
RightHand  0.233251 -7.12362 -16.729
LeftUpLeg  -1.62893 1.35033 -0.70278
LeftLeg  6.04746 3.82905 2.59159
LeftFoot  -5.71789 0.113363 -1.72117
LeftToes  1.70735e-010 3.74918e-011 3.68705e-011
5
root  89.7912 39.4131 135.789 -0.0639229 -72.2795 2.44529
RightUpLeg  -0.480678 -2.83007 -0.852753
RightLeg  9.24395 -5.04808 -1.75456
RightFoot  -9.25609 -0.0971841 1.53159
RightToes  1.21801e-010 1.2921e-014 -6.02303e-014
Spine  -15.2316 -2.5956 0.302394
Spine1  12.7704 -2.77165 -0.282282
HEad  15.2267 6.6215 -2.17809
LeftShoulder1  1.59747 -1.84261 -25.1072
LeftArm  -4.12495 2.86162 -52.9258
LeftForeArm  34.0059 4.02999 -12.4463
LeftHand  0.00860978 10.8897 1.37734
RightShoulder  1.92104 2.55932 26.7695
RightArm  -23.3299 6.50161 56.2054
RightForeArm  75.0616 -5.22621 4.26183
RightHand  0.166484 -6.66314 -16.6346
LeftUpLeg  -1.64305 1.35609 -0.746439
LeftLeg  5.96577 3.91713 2.59671
LeftFoot  -5.66929 0.108139 -1.63996
LeftToes  1.70735e-010 3.74918e-011 3.68705e-011
6
root  89.7747 39.4156 135.782 0.0519246 -72.3312 2.38193
RightUpLeg  -0.480213 -2.72825 -0.738022
RightLeg  9.1735 -5.32554 -1.83825
RightFoot  -9.19181 -0.0996429 1.5455
RightToes  1.21801e-010 1.2921e-014 -6.02303e-014
Spine  -15.2151 -2.58121 0.228859
Spine1  12.7675 -2.81598 -0.057328
HEad  15.2526 6.61771 -2.37099
LeftShoulder1  1.59767 -1.81781 -25.2682
LeftArm  -3.79074 2.68774 -52.9632
LeftForeArm  33.6192 4.1512 -12.6018
LeftHand  -0.0159931 11.9242 0.84053
RightShoulder  1.90807 2.5671 26.4941
RightArm  -23.0687 6.22346 56.3417
RightForeArm  74.5523 -5.27991 4.46018
RightHand  0.217904 -7.01895 -16.7012
LeftUpLeg  -1.62633 1.38162 -0.716264
LeftLeg  5.8612 3.97471 2.61185
LeftFoot  -5.64568 0.109842 -1.66642
LeftToes  1.70735e-010 3.74918e-011 3.68705e-011
7
root  89.7537 39.4175 135.779 0.0128076 -72.3507 2.48274
RightUpLeg  -0.489757 -2.7095 -0.748275
RightLeg  9.13483 -5.31497 -1.84895
RightFoot  -9.21541 -0.0996567 1.54061
RightToes  1.21801e-010 1.2921e-014 -6.02303e-014
Spine  -15.2178 -2.58842 0.199497
Spine1  12.7027 -2.76946 -0.213779
HEad  15.403 6.61249 -2.16883
LeftShoulder1  1.66194 -2.0508 -25.1059
LeftArm  -3.86748 2.91765 -52.9931
LeftForeArm  33.565 4.24304 -12.5851
LeftHand  -0.0188997 12.1673 0.785087
RightShoulder  1.87603 2.37428 27.0501
RightArm  -22.673 5.99776 55.7713
RightForeArm  74.5739 -5.32533 4.74086
RightHand  0.205705 -6.94308 -16.6065
LeftUpLeg  -1.60118 1.37603 -0.741527
LeftLeg  5.7489 3.98236 2.61143
LeftFoot  -5.59457 0.110839 -1.68193
LeftToes  1.70735e-010 3.74918e-011 3.68705e-011
